<?xml version="1.0" encoding="UTF-8"?><svg id="Layer_1" xmlns="http://www.w3.org/2000/svg" viewBox="0 0 64 64"><defs><style>.cls-1{fill:#3d3531;stroke-width:0px;}</style></defs><path class="cls-1" d="M63.99,5.23c0-.47-.06-.95-.18-1.4C63.18,1.46,61.16,0,58.52,0,48.45,0,38.38,0,28.3,0,20.67,0,13.04-.01,5.41,0,2.2,0,0,2.22,0,5.43,0,23.19,0,40.95,0,58.71c0,.49.07.98.19,1.45.57,2.25,2.67,3.85,5.23,3.84,8.85-.04,17.7-.02,26.55-.02s17.86,0,26.79,0c2.97,0,5.23-2.26,5.23-5.23,0-17.84,0-35.68,0-53.52ZM36.29,21.59h11.02v2.69h-11.02v-2.69ZM27.59,43.15c-.93.26-1.93.38-2.9.39-3.6.04-7.2.02-10.8.02-.1,0-.19-.02-.34-.03v-23.09h.67c3.76,0,7.51.07,11.27-.02,2.96-.07,5.05,2.13,5.54,4.66.54,2.79-.45,4.94-3.03,6.65,1.27.45,2.35,1.14,3.11,2.25,2.45,3.51.74,8.01-3.52,9.18ZM50.47,35.84c0,.15-.06.3-.1.5h-12.69c.1,1.91,1.36,3.45,3.17,3.93,1.97.52,3.9-.25,5.08-2.07,1.17.33,2.37.66,3.61,1.01-.71,1.45-1.75,2.45-3.05,3.21-2.95,1.73-8.07,1.75-11.02-1.41-2.39-2.56-2.94-5.61-1.87-8.88,1.05-3.19,3.37-5.06,6.69-5.57,2.97-.46,5.68.16,7.84,2.41,1.84,1.92,2.45,4.29,2.34,6.88Z"/><path class="cls-1" d="M24.93,39.67c-2.26.06-4.52.01-6.84.01v-5.95c.22-.01.41-.03.6-.03,2.03,0,4.05.04,6.08-.02,1.78-.05,2.77,1.61,2.8,2.89.04,1.7-1.04,3.05-2.64,3.1Z"/><path class="cls-1" d="M25.27,29.78c-.31.16-.67.29-1.01.29-2.04.03-4.08.01-6.16.01v-5.75h4.03c.71,0,1.41-.01,2.12,0,1.08.02,1.91.64,2.27,1.66.55,1.54.03,3.14-1.25,3.79Z"/><path class="cls-1" d="M46.01,33.51h-8.38c.11-2.32,2.08-4.11,4.31-3.99,2.31.12,4.18,1.95,4.07,3.99Z"/></svg>