<?xml version="1.0" encoding="UTF-8"?><svg id="Layer_1" xmlns="http://www.w3.org/2000/svg" viewBox="0 0 1200 823.81"><defs><style>.cls-1{fill:#d5b29c;}.cls-1,.cls-2{stroke-width:0px;}.cls-2{fill:#3d3531;}</style></defs><path class="cls-2" d="M1171.81,153.68c-13.67,12.25-31.72,19.71-51.57,19.71s-37.84-7.46-51.51-19.7c-4.59-4.11-11.84-1-11.84,5.15l.19,332h-267.15V6.33c0-3.41-2.76-6.17-6.17-6.17-2.08,0-4.02,1.05-5.16,2.78l-378,575.34c-2.44,3.71-7.87,3.71-10.31,0L11.78,2.94C10.64,1.2,8.7.16,6.63.16,3.22.16.45,2.92.45,6.33v811.12c0,3.41,2.76,6.17,6.17,6.17h114.15c3.41,0,6.17-2.76,6.17-6.17v-419.57c0-6.22,8.16-8.53,11.42-3.24l256.57,415.48h1l118.81-192.54h148.68v199.87c0,3.41,2.76,6.17,6.17,6.17h114.15c3.41,0,6.17-2.76,6.17-6.17v-199.87h267.15v198.99c0,3.89,3.16,7.05,7.05,7.05h112.67c3.89,0,7.05-3.16,7.05-7.05l-.19-657.73c0-6.16-7.26-9.26-11.84-5.15ZM592.96,490.84l59.05-95.69c3.27-5.29,11.42-2.98,11.42,3.24v92.45h-70.47Z"/><path class="cls-1" d="M1200,79.69c0,1.38,0,2.75-.08,4.13-2.19,42.11-37.01,75.64-79.69,75.64s-77.43-33.53-79.61-75.64c-.08-1.38-.08-2.75-.08-4.13s0-2.75.08-4.13c2.19-42.03,37.01-75.56,79.61-75.56s77.51,33.53,79.69,75.56c.08,1.38.08,2.75.08,4.13Z"/></svg>