<?xml version="1.0" encoding="UTF-8"?><svg id="Layer_1" xmlns="http://www.w3.org/2000/svg" viewBox="0 0 600 600"><defs><style>.cls-1{fill:#3d3531;stroke-width:0px;}</style></defs><path class="cls-1" d="M599.85,331.73v-44.67h-15.95l.02-119.52c8.96-2.74,15.48-11.07,15.48-20.93,0-12.09-9.8-21.89-21.89-21.89s-21.89,9.8-21.89,21.89c0,9.88,6.54,18.22,15.53,20.94v54.53c-13.81-45.04-38.49-86.31-72.75-120.56-.33-.33-.67-.65-1-.97-2.43-2.5-4.96-4.91-7.56-7.23-32.53-30.06-70.76-51.94-112.19-64.6h56.32c2.74,8.97,11.07,15.49,20.93,15.49,12.09,0,21.89-9.8,21.89-21.89S466.99.45,454.9.45c-9.88,0-18.22,6.54-20.94,15.53l-119.51-.02V0h-44.67v15.95l-119.52-.02c-2.74-8.96-11.07-15.48-20.93-15.48-12.09,0-21.89,9.8-21.89,21.89s9.8,21.89,21.89,21.89c9.88,0,18.22-6.54,20.94-15.53h56.02c-45.15,13.79-86.52,38.51-120.84,72.84C33.65,153.33,3.71,221.17.28,293.87h-.02v.4s0,.05,0,.08v27.09s0,.09,0,.14l-.1,278.2,282.91.09c.08,0,.15,0,.23,0,2.87.09,5.76.13,8.64.13,78,0,151.33-30.37,206.47-85.53,34.24-34.23,58.91-75.47,72.72-120.48v57.26c-8.97,2.74-15.49,11.07-15.49,20.93,0,12.09,9.8,21.89,21.89,21.89s21.89-9.8,21.89-21.89c0-9.88-6.54-18.22-15.53-20.94l.02-119.51h15.96ZM587.09,299.83v19.14h-3.19v-7.86c.01-1.04.04-2.07.04-3.11s-.03-2.02-.04-3.03v-5.14h3.19ZM571.13,305.25v5.57c-.03,2.73-.1,5.44-.2,8.15h-2.99v-19.14h3.1c.05,1.8.08,3.61.09,5.42ZM525.95,201.95c0,73.13-59.5,132.63-132.63,132.63s-132.63-59.5-132.63-132.63,59.5-132.63,132.63-132.63c31.94,0,61.28,11.35,84.2,30.23,4.91,4.38,9.67,8.93,14.27,13.64,21.22,23.52,34.17,54.66,34.17,88.76ZM13.02,306.63l271.36.09-.1,280.38h-.6c-145.79-4.26-263.9-120.79-270.66-265.95v-14.52ZM282.55,28.94c3.12-.1,6.24-.17,9.38-.17s6.52.08,9.76.19v2.95h-19.14v-2.96ZM282.55,12.76h19.14v3.19h-19.14v-3.19ZM269.79,29.64v15.02h44.67v-14.99c36.74,2.95,71.5,13.04,102.88,28.88-7.82-1.31-15.84-2-24.02-2-80.17,0-145.39,65.22-145.39,145.39,0,34.88,12.35,66.92,32.9,92.01l-267.77-.08C20.06,153.81,130.77,40.6,269.79,29.64ZM12.99,394.81c13.85,44.69,38.45,85.65,72.48,119.66,34.13,34.15,75.23,58.79,120.1,72.61l-192.65-.06.07-192.21ZM297.04,587.17l.09-276.29c25.65,22.67,59.33,36.46,96.18,36.46,80.17,0,145.39-65.22,145.39-145.39,0-10.4-1.11-20.55-3.19-30.34,19.46,34.62,31.77,73.78,34.87,115.46h-15.2v44.67h14.97c-11.94,141.23-129.45,252.85-273.11,255.44Z"/></svg>