<?xml version="1.0" encoding="UTF-8"?><svg id="Layer_1" xmlns="http://www.w3.org/2000/svg" viewBox="0 0 64 64"><defs><style>.cls-1{fill:#3d3531;stroke-width:0px;}</style></defs><path class="cls-1" d="M44.28,63.86v-24.48c.28-.04.57-.13.86-.13,2.05-.01,4.1,0,6.14,0,1.19,0,1.25-.08,1.4-1.26.35-2.73.7-5.46,1.08-8.35-.45-.05-.82-.12-1.19-.12-2.36-.01-4.72,0-7.08,0-1.22,0-1.27-.07-1.28-1.28,0-1.56-.04-3.12.01-4.67.03-.79.15-1.59.32-2.37.28-1.26,1.16-1.99,2.38-2.23.87-.17,1.76-.26,2.64-.29,1.42-.05,2.84-.01,4.32-.01.07-.31.18-.56.18-.8.01-2.27.01-4.54,0-6.81,0-1.05-.1-1.2-1.12-1.22-2.97-.04-5.98-.31-8.92.03-5.01.57-8.54,3.98-9.55,8.89-.65,3.14-.29,6.3-.36,9.45-.03,1.3.01,1.32-1.34,1.32-2.27,0-4.53,0-6.76,0-.38,1.05-.4,8.42-.03,9.68h8.05v24.68c-.34.05-.68.14-1.02.14-7.12,0-14.25.05-21.37,0C5.14,63.94-.03,58.28,0,52.15c.06-13.49.05-26.98,0-40.47C-.02,5.67,5.32-.03,11.66-.02c13.53.03,27.07.03,40.6,0,5.98-.02,10.75,4.77,11.47,9.5.12.79.23,1.58.23,2.38.01,13.4-.04,26.8.03,40.2.03,5.45-3.87,10.23-8.94,11.58-.81.22-1.67.33-2.5.34-2.45.04-4.9.02-7.35.01-.26,0-.51-.07-.93-.13Z"/></svg>