<?xml version="1.0" encoding="UTF-8"?><svg id="Layer_1" xmlns="http://www.w3.org/2000/svg" viewBox="0 0 64 64"><defs><style>.cls-1{fill:#3d3531;stroke-width:0px;}</style></defs><path class="cls-1" d="M32.19,64.02c-5.85,0-11.69.04-17.54-.02-1.66-.02-3.35-.14-4.97-.5-5.09-1.14-8.72-5.16-9.43-10.34C.08,51.9,0,50.63,0,49.36c0-12.01,0-24.02.04-36.04,0-2.71.6-5.29,2.12-7.59C4.3,2.51,7.3.66,11.11.25,13.28.01,15.48-.03,17.66-.03c10.06-.03,20.13-.02,30.19,0,1.59,0,3.18.1,4.76.24,5.88.5,10.71,5.35,11.12,11.25.18,2.58.24,5.16.25,7.75.02,9.71,0,19.41-.02,29.12,0,1.51-.09,3.02-.25,4.52-.6,5.73-5.04,10.3-10.78,10.92-2.44.27-4.92.25-7.39.27-4.45.04-8.91.01-13.36.01,0,0,0-.01,0-.02ZM32.02,11.14c-2.9,0-5.8-.02-8.71,0-.83,0-1.68.05-2.49.21-5.78,1.16-9.69,5.98-9.74,12.04-.04,5.72-.04,11.45.02,17.18.01,1.26.19,2.55.55,3.76,1.52,5.15,6.04,8.46,11.63,8.58,2.19.05,4.37.01,6.56.01,3.58,0,7.16.02,10.73,0,7.95-.06,12.4-6.49,12.28-12.36-.12-5.72-.08-11.45-.01-17.18.09-6.8-5.42-12.37-12.23-12.25-2.86.05-5.73,0-8.59,0Z"/><path class="cls-1" d="M48.98,32.13c0,2.86-.08,5.73.02,8.59.17,4.58-3.53,8.52-8.4,8.45-5.85-.09-11.69,0-17.54-.03-3.83-.02-7-2.48-7.85-6.1-.15-.65-.21-1.34-.22-2.01-.02-5.97-.03-11.93,0-17.9.02-4.61,3.49-8.05,8.11-8.07,5.93-.02,11.85-.02,17.78,0,4.58.02,8.06,3.5,8.09,8.11.02,2.98,0,5.97,0,8.95ZM42.79,32.15c.01-6.01-4.81-10.88-10.79-10.89-5.98-.01-10.82,4.8-10.89,10.82-.06,5.92,4.86,10.87,10.82,10.88,6,0,10.84-4.81,10.86-10.81ZM45.65,20.94c.04-1.41-1.01-2.53-2.41-2.58-1.39-.05-2.56,1.02-2.62,2.39-.06,1.42,1.07,2.63,2.49,2.65,1.39.02,2.51-1.06,2.54-2.46Z"/><path class="cls-1" d="M25,32.05c.02-3.89,3.13-6.97,7-6.95,3.91.02,7.01,3.19,6.96,7.13-.05,3.85-3.21,6.93-7.07,6.89-3.86-.04-6.91-3.16-6.88-7.07Z"/></svg>