<?xml version="1.0" encoding="UTF-8"?><svg id="Layer_1" xmlns="http://www.w3.org/2000/svg" viewBox="0 0 64 64"><defs><style>.cls-1{fill:#3d3531;stroke-width:0px;}</style></defs><path class="cls-1" d="M0,31.93c0-6.68,0-13.36,0-20.04C0,5.29,5.27,0,11.84,0c13.4,0,26.81,0,40.21,0,6.73,0,11.94,5.21,11.94,11.92,0,13.36,0,26.72,0,40.08,0,6.75-5.25,12.01-12.03,12.02-13.27.01-26.54.01-39.81,0C5.21,64,0,58.78,0,51.84c0-6.64,0-13.27,0-19.91ZM34.47,53.54c.03-.61.08-1.13.09-1.65,0-5.16-.02-10.33.01-15.49.02-2.44,2.27-4.63,4.84-4.83,2.45-.19,4.29,1.27,4.78,3.87.16.87.26,1.76.27,2.65.03,4.63,0,9.26.02,13.89,0,.52.05,1.03.08,1.55h9.59c.05-.41.11-.71.11-1.02,0-5.3.05-10.59-.03-15.89-.02-1.58-.29-3.19-.67-4.73-1-4.06-3.53-6.76-7.66-7.65-3.97-.86-7.62-.2-10.45,3.05-.2.23-.47.41-.98.84v-3.46h-9.62v28.88h9.63ZM19.34,53.56v-28.91h-9.38v28.91h9.38ZM14.78,10.61c-3.14-.03-5.56,2.15-5.59,5.02-.03,2.87,2.28,5.1,5.32,5.15,3.2.05,5.71-2.2,5.68-5.09-.03-2.89-2.34-5.05-5.41-5.08Z"/></svg>