<?xml version="1.0" encoding="UTF-8"?><svg id="Layer_1" xmlns="http://www.w3.org/2000/svg" viewBox="0 0 583.03 400"><defs><style>.cls-1{fill:#d5b29c;}.cls-1,.cls-2{stroke-width:0px;}.cls-2{fill:#3d3531;}</style></defs><path class="cls-2" d="M569.34,74.64c-6.64,5.95-15.41,9.57-25.05,9.57s-18.38-3.62-25.02-9.57c-2.23-2-5.75-.49-5.75,2.5l.09,161.24h-129.74V3.07c0-1.66-1.34-3-3-3-1.01,0-1.95.51-2.5,1.35l-183.58,279.42c-1.18,1.8-3.82,1.8-5.01,0L5.96,1.43C5.4.58,4.46.08,3.45.08,1.8.08.45,1.42.45,3.07v393.93c0,1.66,1.34,3,3,3h55.44c1.66,0,3-1.34,3-3v-203.77c0-3.02,3.96-4.14,5.55-1.57l124.6,201.78h.49l57.7-93.51h72.21v97.07c0,1.66,1.34,3,3,3h55.44c1.66,0,3-1.34,3-3v-97.07h129.74v96.64c0,1.89,1.53,3.42,3.42,3.42h54.72c1.89,0,3.42-1.53,3.42-3.42l-.09-319.44c0-2.99-3.52-4.5-5.75-2.5ZM288.21,238.38l28.68-46.47c1.59-2.57,5.55-1.45,5.55,1.57v44.9h-34.22Z"/><path class="cls-1" d="M583.03,38.7c0,.67,0,1.34-.04,2.01-1.06,20.45-17.98,36.74-38.7,36.74s-37.6-16.28-38.66-36.74c-.04-.67-.04-1.34-.04-2.01s0-1.34.04-2.01c1.06-20.41,17.98-36.7,38.66-36.7s37.64,16.28,38.7,36.7c.04.67.04,1.34.04,2.01Z"/></svg>