<?xml version="1.0" encoding="UTF-8"?><svg id="Layer_1" xmlns="http://www.w3.org/2000/svg" viewBox="0 0 600 600"><defs><style>.cls-1{fill:#3d3531;stroke-width:0px;}</style></defs><path class="cls-1" d="M600-.04v600.08H0V-.04h600ZM301.14,24.1c-87.23,0-174.47.25-261.7-.28-12.37-.07-15.67,3.37-15.64,15.69.39,173.57.39,347.15,0,520.72-.03,12.27,3.19,15.74,15.61,15.71,173.57-.4,347.15-.4,520.72,0,12.36.03,15.67-3.36,15.64-15.68-.39-173.57-.39-347.15,0-520.72.03-12.27-3.19-15.79-15.61-15.72-86.34.53-172.68.28-259.02.28Z"/><path class="cls-1" d="M300.07,433.28c-56.78,0-113.56.06-170.34-.02-34.42-.05-48.51-24.03-31.38-53.76,37.03-64.25,74.19-128.41,111.49-192.5,16.19-27.81,43.33-27.7,59.76.36,22.12,37.78,43.69,75.87,65.58,113.78,10.05,17.41,21.63,17.46,31.71.19,5.63-9.64,10.73-19.6,16.59-29.1,13.82-22.4,41.28-23.42,54.69-1.08,22.75,37.91,44.78,76.29,66.05,115.05,13,23.68-2.66,46.8-31.12,46.99-48.28.31-96.57.09-144.86.09-9.39,0-18.78,0-28.17,0Z"/><path class="cls-1" d="M410.81,166.85c18.34-.27,33.18,14.27,33.49,32.81.3,17.87-15.11,33.12-33.34,33-17.75-.12-32.15-14.29-32.72-32.21-.58-18.2,14.08-33.33,32.57-33.6Z"/></svg>