<?xml version="1.0" encoding="UTF-8"?><svg id="Layer_1" xmlns="http://www.w3.org/2000/svg" viewBox="0 0 695.85 600"><defs><style>.cls-1{fill:#3d3531;stroke-width:0px;}</style></defs><path class="cls-1" d="M65.49,214.4v218.41h275.7v-218.41H65.49ZM65.49,214.4v218.41h275.7v-218.41H65.49ZM65.49,214.4v218.41h275.7v-218.41H65.49ZM65.49,214.4v218.41h275.7v-218.41H65.49ZM65.49,214.4v218.41h275.7v-218.41H65.49ZM65.49,214.4v218.41h275.7v-218.41H65.49ZM65.49,214.4v218.41h275.7v-218.41H65.49ZM65.49,214.4v218.41h275.7v-218.41H65.49ZM.82,148.99v423.64c0,15.05,12.31,27.37,27.37,27.37h640.3c15.05,0,27.37-12.32,27.37-27.37V149.01l-695.03-.02ZM423.55,296.48l119.09.02v22.81l-119.09-.02v-22.81ZM262.13,520l-219.44-.02v-22.81l219.44.02v22.81ZM364,455.62H42.69V191.59h321.31v264.02ZM542.64,514.41l-119.09-.02v-22.81l119.09.02v22.81ZM642.99,461.2l-219.44-.02v-22.81l219.44.02v22.81ZM642.99,405.44h-219.44v-22.81h219.44v22.81ZM642.99,268.61h-219.44v-22.81h219.44v22.81ZM642.99,212.87l-219.44-.02v-22.81l219.44.02v22.81ZM341.2,214.4H65.49v218.41h275.7v-218.41ZM65.49,214.4v218.41h275.7v-218.41H65.49ZM65.49,214.4v218.41h275.7v-218.41H65.49ZM65.49,214.4v218.41h275.7v-218.41H65.49ZM65.49,214.4v218.41h275.7v-218.41H65.49ZM65.49,214.4v218.41h275.7v-218.41H65.49ZM65.49,214.4v218.41h275.7v-218.41H65.49ZM668.48,0H28.18C13.13,0,.82,12.32.82,27.37v98.82l695.03.02V27.37c0-15.05-12.32-27.37-27.37-27.37ZM79.91,77.29h-37.22v-22.81h37.22v22.81ZM141.99,77.29h-37.22v-22.81h37.24l-.02,22.81ZM204.06,77.29h-37.22v-22.81h37.24l-.02,22.81ZM642.99,77.29h-288.61v-22.81h288.61v22.81Z"/></svg>