<?xml version="1.0" encoding="UTF-8"?><svg id="Layer_1" xmlns="http://www.w3.org/2000/svg" viewBox="0 0 64 64"><defs><style>.cls-1{fill:#3d3531;stroke-width:0px;}</style></defs><path class="cls-1" d="M32.03-.05c7.02,0,14.05,0,21.07,0,4.3,0,7.53,1.9,9.64,5.63.93,1.64,1.24,3.45,1.23,5.33-.01,4.39-.02,8.78-.02,13.17,0,9.68-.03,19.37.03,29.05.04,6.16-4.82,10.97-10.86,10.92-8.8-.07-17.6-.02-26.39-.02-5.39,0-10.78.01-16.17-.02-5.82-.03-10.43-4.5-10.52-10.32-.1-5.92-.04-11.84-.05-17.77,0-8.36,0-16.72.01-25.09C.03,6.12,2.23,2.73,6.5.79,7.57.3,8.84.03,10.02.01c5.25-.09,10.5-.05,15.75-.06,2.09,0,4.17,0,6.26,0,0,0,0,0,0,0ZM6.69,57.47c.25,0,.36.03.45,0,4.17-1.34,8.34-2.68,12.5-4.04.53-.17.95-.15,1.46.11,5.01,2.53,10.28,3.37,15.82,2.32,6.49-1.23,11.74-4.51,15.65-9.8,4.46-6.03,5.72-12.88,4.19-20.14-1.26-5.98-4.46-10.88-9.38-14.55-6.14-4.56-13.05-6.01-20.46-4.36-7.74,1.73-13.32,6.39-16.84,13.5-2.32,4.68-3,9.65-2.24,14.79.44,2.96,1.46,5.76,2.98,8.36.22.37.31.69.13,1.15-.5,1.33-.91,2.69-1.36,4.03-.95,2.85-1.91,5.69-2.9,8.64Z"/><path class="cls-1" d="M13.12,51.21c.53-1.6.99-3,1.46-4.41.29-.85.58-1.7.88-2.55.17-.48.15-.87-.18-1.34-2.01-2.91-3.22-6.15-3.49-9.67-.43-5.56,1.1-10.58,4.57-14.96,3.14-3.97,7.23-6.48,12.19-7.36,5.97-1.06,11.53.13,16.39,3.87,4.39,3.37,7.13,7.79,7.94,13.32,1,6.76-.79,12.69-5.51,17.61-3.31,3.45-7.41,5.5-12.18,6.16-4.82.66-9.3-.28-13.44-2.8-.54-.33-.97-.36-1.55-.16-2.29.77-4.59,1.49-7.09,2.29ZM24.87,19.01c-.9-.01-1.67.26-2.38.84-2.35,1.89-2.74,4.41-2.26,7.14.35,1.98,1.43,3.65,2.5,5.33,3.51,5.5,8.27,9.37,14.55,11.26.82.24,1.71.5,2.53.4,2.41-.3,4.05-1.81,5.26-3.82.25-.42.34-.99.37-1.49.03-.46.01-.96-.54-1.24-1.66-.86-3.28-1.78-4.95-2.62-.84-.42-1-.33-1.68.44-.62.7-1.26,1.39-1.87,2.1-.4.47-.83.53-1.37.28-3.66-1.67-6.44-4.26-8.36-7.8-.29-.53-.26-.93.19-1.38.52-.51.97-1.09,1.42-1.66.44-.56.49-1.16.22-1.85-.6-1.51-1.14-3.04-1.71-4.57-.43-1.15-.71-1.34-1.91-1.35Z"/></svg>